<?xml version="1.0" standalone="no"?>
 <!DOCTYPE svg PUBLIC "-//W3C//DTD SVG 1.1//EN" 
 "http://www.w3.org/Graphics/SVG/1.1/DTD/svg11.dtd"> 
<svg xmlns="http://www.w3.org/2000/svg" version="1.1" 
    width="5.96646cm" height="6.00456cm" viewBox="0 0 23490 23640 ">
<title>SVG Picture created as led_circle-B_SilkS.svg date 2015/07/08 14:06:38 </title>
  <desc>Picture generated by PCBNEW </desc>
<g style="fill:#000000; fill-opacity:1;stroke:#000000; stroke-opacity:1;
stroke-linecap:round; stroke-linejoin:round; "
 transform="translate(0 0) scale(1 1)">
</g>
<g style="fill:#840084; fill-opacity:0.0; 
stroke:#840084; stroke-width:49.2126; stroke-opacity:1; 
stroke-linecap:round; stroke-linejoin:round;">
<path d="M17304 7769
L17295 7779
L17286 7797
L17286 7844
L17295 7863
L17304 7872
L17323 7882
L17342 7882
L17370 7872
L17482 7760
L17482 7882
" />
<path d="M17370 7994
L17361 7975
L17351 7966
L17332 7957
L17323 7957
L17304 7966
L17295 7975
L17286 7994
L17286 8032
L17295 8050
L17304 8060
L17323 8069
L17332 8069
L17351 8060
L17361 8050
L17370 8032
L17370 7994
L17379 7975
L17389 7966
L17407 7957
L17445 7957
L17464 7966
L17473 7975
L17482 7994
L17482 8032
L17473 8050
L17464 8060
L17445 8069
L17407 8069
L17389 8060
L17379 8050
L17370 8032
" />
<path d="M16304 7769
L16295 7779
L16286 7797
L16286 7844
L16295 7863
L16304 7872
L16323 7882
L16342 7882
L16370 7872
L16482 7760
L16482 7882
" />
<path d="M16286 7947
L16286 8079
L16482 7994
" />
<path d="M15404 7769
L15395 7779
L15386 7797
L15386 7844
L15395 7863
L15404 7872
L15423 7882
L15442 7882
L15470 7872
L15582 7760
L15582 7882
" />
<path d="M15386 8050
L15386 8013
L15395 7994
L15404 7985
L15432 7966
L15470 7957
L15545 7957
L15564 7966
L15573 7975
L15582 7994
L15582 8032
L15573 8050
L15564 8060
L15545 8069
L15498 8069
L15479 8060
L15470 8050
L15461 8032
L15461 7994
L15470 7975
L15479 7966
L15498 7957
" />
<path d="M14404 7769
L14395 7779
L14386 7797
L14386 7844
L14395 7863
L14404 7872
L14423 7882
L14442 7882
L14470 7872
L14582 7760
L14582 7882
" />
<path d="M14386 8060
L14386 7966
L14479 7957
L14470 7966
L14461 7985
L14461 8032
L14470 8050
L14479 8060
L14498 8069
L14545 8069
L14564 8060
L14573 8050
L14582 8032
L14582 7985
L14573 7966
L14564 7957
" />
<path d="M13404 7769
L13395 7779
L13386 7797
L13386 7844
L13395 7863
L13404 7872
L13423 7882
L13442 7882
L13470 7872
L13582 7760
L13582 7882
" />
<path d="M13451 8050
L13582 8050
" />
<path d="M13376 8004
L13517 7957
L13517 8079
" />
<path d="M12404 7769
L12395 7779
L12386 7797
L12386 7844
L12395 7863
L12404 7872
L12423 7882
L12442 7882
L12470 7872
L12582 7760
L12582 7882
" />
<path d="M12386 7947
L12386 8069
L12461 8004
L12461 8032
L12470 8050
L12479 8060
L12498 8069
L12545 8069
L12564 8060
L12573 8050
L12582 8032
L12582 7975
L12573 7957
L12564 7947
" />
<path d="M11404 7769
L11395 7779
L11386 7797
L11386 7844
L11395 7863
L11404 7872
L11423 7882
L11442 7882
L11470 7872
L11582 7760
L11582 7882
" />
<path d="M11404 7957
L11395 7966
L11386 7985
L11386 8032
L11395 8050
L11404 8060
L11423 8069
L11442 8069
L11470 8060
L11582 7947
L11582 8069
" />
<path d="M10404 7769
L10395 7779
L10386 7797
L10386 7844
L10395 7863
L10404 7872
L10423 7882
L10442 7882
L10470 7872
L10582 7760
L10582 7882
" />
<path d="M10582 8069
L10582 7957
" />
<path d="M10582 8013
L10386 8013
L10414 7994
L10432 7975
L10442 7957
" />
<path d="M9404 7769
L9395 7779
L9386 7797
L9386 7844
L9395 7863
L9404 7872
L9423 7882
L9442 7882
L9470 7872
L9582 7760
L9582 7882
" />
<path d="M9386 8004
L9386 8022
L9395 8041
L9404 8050
L9423 8060
L9461 8069
L9507 8069
L9545 8060
L9564 8050
L9573 8041
L9582 8022
L9582 8004
L9573 7985
L9564 7975
L9545 7966
L9507 7957
L9461 7957
L9423 7966
L9404 7975
L9395 7985
L9386 8004
" />
<path d="M8582 7882
L8582 7769
" />
<path d="M8582 7825
L8386 7825
L8414 7807
L8432 7788
L8442 7769
" />
<path d="M8582 7975
L8582 8013
L8573 8032
L8564 8041
L8536 8060
L8498 8069
L8423 8069
L8404 8060
L8395 8050
L8386 8032
L8386 7994
L8395 7975
L8404 7966
L8423 7957
L8470 7957
L8489 7966
L8498 7975
L8507 7994
L8507 8032
L8498 8050
L8489 8060
L8470 8069
" />
<path d="M7582 7882
L7582 7769
" />
<path d="M7582 7825
L7386 7825
L7414 7807
L7432 7788
L7442 7769
" />
<path d="M7470 7994
L7461 7975
L7451 7966
L7432 7957
L7423 7957
L7404 7966
L7395 7975
L7386 7994
L7386 8032
L7395 8050
L7404 8060
L7423 8069
L7432 8069
L7451 8060
L7461 8050
L7470 8032
L7470 7994
L7479 7975
L7489 7966
L7507 7957
L7545 7957
L7564 7966
L7573 7975
L7582 7994
L7582 8032
L7573 8050
L7564 8060
L7545 8069
L7507 8069
L7489 8060
L7479 8050
L7470 8032
" />
<path d="M6482 7882
L6482 7769
" />
<path d="M6482 7825
L6286 7825
L6314 7807
L6332 7788
L6342 7769
" />
<path d="M6286 7947
L6286 8079
L6482 7994
" />
<path d="M5582 7882
L5582 7769
" />
<path d="M5582 7825
L5386 7825
L5414 7807
L5432 7788
L5442 7769
" />
<path d="M5386 8050
L5386 8013
L5395 7994
L5404 7985
L5432 7966
L5470 7957
L5545 7957
L5564 7966
L5573 7975
L5582 7994
L5582 8032
L5573 8050
L5564 8060
L5545 8069
L5498 8069
L5479 8060
L5470 8050
L5461 8032
L5461 7994
L5470 7975
L5479 7966
L5498 7957
" />
<path d="M4882 8782
L4882 8669
" />
<path d="M4882 8725
L4686 8725
L4714 8707
L4732 8688
L4742 8669
" />
<path d="M4686 8960
L4686 8866
L4779 8857
L4770 8866
L4761 8885
L4761 8932
L4770 8950
L4779 8960
L4798 8969
L4845 8969
L4864 8960
L4873 8950
L4882 8932
L4882 8885
L4873 8866
L4864 8857
" />
<path d="M4182 11782
L4182 11669
" />
<path d="M4182 11725
L3986 11725
L4014 11707
L4032 11688
L4042 11669
" />
<path d="M4051 11950
L4182 11950
" />
<path d="M3976 11904
L4117 11857
L4117 11979
" />
<path d="M5582 11982
L5582 11869
" />
<path d="M5582 11925
L5386 11925
L5414 11907
L5432 11888
L5442 11869
" />
<path d="M5386 12047
L5386 12169
L5461 12104
L5461 12132
L5470 12150
L5479 12160
L5498 12169
L5545 12169
L5564 12160
L5573 12150
L5582 12132
L5582 12075
L5573 12057
L5564 12047
" />
<path d="M6582 11982
L6582 11869
" />
<path d="M6582 11925
L6386 11925
L6414 11907
L6432 11888
L6442 11869
" />
<path d="M6404 12057
L6395 12066
L6386 12085
L6386 12132
L6395 12150
L6404 12160
L6423 12169
L6442 12169
L6470 12160
L6582 12047
L6582 12169
" />
<path d="M7582 11982
L7582 11869
" />
<path d="M7582 11925
L7386 11925
L7414 11907
L7432 11888
L7442 11869
" />
<path d="M7582 12169
L7582 12057
" />
<path d="M7582 12113
L7386 12113
L7414 12094
L7432 12075
L7442 12057
" />
<path d="M8582 11982
L8582 11869
" />
<path d="M8582 11925
L8386 11925
L8414 11907
L8432 11888
L8442 11869
" />
<path d="M8386 12104
L8386 12122
L8395 12141
L8404 12150
L8423 12160
L8461 12169
L8507 12169
L8545 12160
L8564 12150
L8573 12141
L8582 12122
L8582 12104
L8573 12085
L8564 12075
L8545 12066
L8507 12057
L8461 12057
L8423 12066
L8404 12075
L8395 12085
L8386 12104
" />
<path d="M9582 11982
L9582 12019
L9573 12038
L9564 12047
L9536 12066
L9498 12075
L9423 12075
L9404 12066
L9395 12057
L9386 12038
L9386 12000
L9395 11982
L9404 11972
L9423 11963
L9470 11963
L9489 11972
L9498 11982
L9507 12000
L9507 12038
L9498 12057
L9489 12066
L9470 12075
" />
<path d="M10470 12000
L10461 11982
L10451 11972
L10432 11963
L10423 11963
L10404 11972
L10395 11982
L10386 12000
L10386 12038
L10395 12057
L10404 12066
L10423 12075
L10432 12075
L10451 12066
L10461 12057
L10470 12038
L10470 12000
L10479 11982
L10489 11972
L10507 11963
L10545 11963
L10564 11972
L10573 11982
L10582 12000
L10582 12038
L10573 12057
L10564 12066
L10545 12075
L10507 12075
L10489 12066
L10479 12057
L10470 12038
" />
<path d="M11386 11954
L11386 12085
L11582 12000
" />
<path d="M12386 12057
L12386 12019
L12395 12000
L12404 11991
L12432 11972
L12470 11963
L12545 11963
L12564 11972
L12573 11982
L12582 12000
L12582 12038
L12573 12057
L12564 12066
L12545 12075
L12498 12075
L12479 12066
L12470 12057
L12461 12038
L12461 12000
L12470 11982
L12479 11972
L12498 11963
" />
<path d="M13386 11966
L13386 11872
L13479 11863
L13470 11872
L13461 11891
L13461 11938
L13470 11957
L13479 11966
L13498 11975
L13545 11975
L13564 11966
L13573 11957
L13582 11938
L13582 11891
L13573 11872
L13564 11863
" />
<path d="M14451 12057
L14582 12057
" />
<path d="M14376 12010
L14517 11963
L14517 12085
" />
<path d="M15286 11954
L15286 12075
L15361 12010
L15361 12038
L15370 12057
L15379 12066
L15398 12075
L15445 12075
L15464 12066
L15473 12057
L15482 12038
L15482 11982
L15473 11963
L15464 11954
" />
<path d="M16304 11963
L16295 11972
L16286 11991
L16286 12038
L16295 12057
L16304 12066
L16323 12075
L16342 12075
L16370 12066
L16482 11954
L16482 12075
" />
<path d="M17482 12075
L17482 11963
" />
<path d="M17482 12019
L17286 12019
L17314 12000
L17332 11982
L17342 11963
" />
</g>
<g style="fill:#840084; fill-opacity:0.0; 
stroke:#840084; stroke-width:78.7402; stroke-opacity:1; 
stroke-linecap:round; stroke-linejoin:round;">
<path d="M21133 16134
L21028 16134
" />
<path d="M20983 16299
L21133 16299
L21133 15985
L20983 15985
" />
<path d="M20848 16089
L20848 16299
" />
<path d="M20848 16119
L20833 16104
L20803 16089
L20758 16089
L20728 16104
L20713 16134
L20713 16299
" />
<path d="M20428 16284
L20458 16299
L20518 16299
L20548 16284
L20563 16269
L20578 16239
L20578 16149
L20563 16119
L20548 16104
L20518 16089
L20458 16089
L20428 16104
" />
<path d="M20248 16299
L20278 16284
L20293 16269
L20308 16239
L20308 16149
L20293 16119
L20278 16104
L20248 16089
L20203 16089
L20173 16104
L20158 16119
L20143 16149
L20143 16239
L20158 16269
L20173 16284
L20203 16299
L20248 16299
" />
<path d="M19873 16299
L19873 15985
" />
<path d="M19873 16284
L19903 16299
L19963 16299
L19993 16284
L20008 16269
L20023 16239
L20023 16149
L20008 16119
L19993 16104
L19963 16089
L19903 16089
L19873 16104
" />
<path d="M19603 16284
L19633 16299
L19693 16299
L19723 16284
L19738 16254
L19738 16134
L19723 16104
L19693 16089
L19633 16089
L19603 16104
L19588 16134
L19588 16164
L19738 16194
" />
<path d="M19453 16299
L19453 16089
" />
<path d="M19453 16149
L19438 16119
L19423 16104
L19393 16089
L19363 16089
" />
<path d="M21178 16819
L21208 16804
L21223 16774
L21223 16504
" />
<path d="M20938 16804
L20968 16819
L21028 16819
L21058 16804
L21073 16774
L21073 16654
L21058 16624
L21028 16609
L20968 16609
L20938 16624
L20923 16654
L20923 16684
L21073 16714
" />
<path d="M20653 16819
L20653 16504
" />
<path d="M20653 16804
L20683 16819
L20743 16819
L20773 16804
L20788 16789
L20803 16759
L20803 16669
L20788 16639
L20773 16624
L20743 16609
L20683 16609
L20653 16624
" />
<path d="M20263 16819
L20263 16504
" />
<path d="M20263 16624
L20233 16609
L20173 16609
L20143 16624
L20128 16639
L20113 16669
L20113 16759
L20128 16789
L20143 16804
L20173 16819
L20233 16819
L20263 16804
" />
<path d="M19933 16819
L19963 16804
L19978 16789
L19993 16759
L19993 16669
L19978 16639
L19963 16624
L19933 16609
L19888 16609
L19858 16624
L19843 16639
L19828 16669
L19828 16759
L19843 16789
L19858 16804
L19888 16819
L19933 16819
" />
<path d="M19558 16819
L19558 16654
L19573 16624
L19603 16609
L19663 16609
L19693 16624
" />
<path d="M19558 16804
L19588 16819
L19663 16819
L19693 16804
L19708 16774
L19708 16744
L19693 16714
L19663 16699
L19588 16699
L19558 16684
" />
<path d="M19408 16819
L19408 16609
" />
<path d="M19408 16669
L19393 16639
L19378 16624
L19348 16609
L19318 16609
" />
<path d="M19079 16819
L19079 16504
" />
<path d="M19079 16804
L19109 16819
L19169 16819
L19199 16804
L19214 16789
L19229 16759
L19229 16669
L19214 16639
L19199 16624
L19169 16609
L19109 16609
L19079 16624
" />
</g>
<g style="fill:#840084; fill-opacity:0.0; 
stroke:#840084; stroke-width:98.4252; stroke-opacity:1; 
stroke-linecap:round; stroke-linejoin:round;">
<path d="M19858 15800
L19858 15537
" />
<path d="M19858 15612
L19839 15575
L19820 15556
L19783 15537
L19745 15537
" />
<path d="M19464 15781
L19501 15800
L19576 15800
L19614 15781
L19633 15743
L19633 15593
L19614 15556
L19576 15537
L19501 15537
L19464 15556
L19445 15593
L19445 15631
L19633 15668
" />
<path d="M19314 15537
L19220 15800
L19127 15537
" />
<path d="M18977 15762
L18958 15781
L18977 15800
L18995 15781
L18977 15762
L18977 15800
" />
<path d="M18583 15800
L18808 15800
" />
<path d="M18695 15800
L18695 15406
L18733 15462
L18770 15500
L18808 15518
" />
<path d="M21412 14931
L21412 15268
L21430 15306
L21468 15325
L21487 15325
" />
<path d="M21412 14800
L21430 14818
L21412 14837
L21393 14818
L21412 14800
L21412 14837
" />
<path d="M21224 14931
L21224 15268
L21243 15306
L21280 15325
L21299 15325
" />
<path d="M21224 14800
L21243 14818
L21224 14837
L21205 14818
L21224 14800
L21224 14837
" />
<path d="M21037 15193
L21037 14931
" />
<path d="M21037 15006
L21018 14968
L20999 14950
L20962 14931
L20924 14931
" />
<path d="M20793 15193
L20793 14800
" />
<path d="M20624 15193
L20624 14987
L20643 14950
L20681 14931
L20737 14931
L20774 14950
L20793 14968
" />
<path d="M20024 15343
L20043 15325
L20081 15268
L20099 15231
L20118 15175
L20137 15081
L20137 15006
L20118 14912
L20099 14856
L20081 14818
L20043 14762
L20024 14743
" />
<path d="M19893 14837
L19874 14818
L19837 14800
L19743 14800
L19706 14818
L19687 14837
L19668 14875
L19668 14912
L19687 14968
L19912 15193
L19668 15193
" />
<path d="M19424 14800
L19387 14800
L19349 14818
L19331 14837
L19312 14875
L19293 14950
L19293 15043
L19312 15118
L19331 15156
L19349 15175
L19387 15193
L19424 15193
L19462 15175
L19481 15156
L19499 15118
L19518 15043
L19518 14950
L19499 14875
L19481 14837
L19462 14818
L19424 14800
" />
<path d="M18918 15193
L19143 15193
" />
<path d="M19031 15193
L19031 14800
L19068 14856
L19106 14893
L19143 14912
" />
<path d="M18562 14800
L18750 14800
L18768 14987
L18750 14968
L18712 14950
L18618 14950
L18581 14968
L18562 14987
L18543 15025
L18543 15118
L18562 15156
L18581 15175
L18618 15193
L18712 15193
L18750 15175
L18768 15156
" />
<path d="M18412 15343
L18393 15325
L18356 15268
L18337 15231
L18318 15175
L18300 15081
L18300 15006
L18318 14912
L18337 14856
L18356 14818
L18393 14762
L18412 14743
" />
</g>
<g style="fill:#840084; fill-opacity:0.0; 
stroke:#840084; stroke-width:49.2126; stroke-opacity:1; 
stroke-linecap:round; stroke-linejoin:round;">
<path d="M10015 6094
L10015 6160
" />
<path d="M10118 6188
L10118 6094
L9921 6094
L9921 6188
" />
<path d="M10118 6272
L9921 6272
L10118 6385
L9921 6385
" />
<path d="M10099 6591
L10109 6582
L10118 6553
L10118 6535
L10109 6507
L10090 6488
L10071 6479
L10034 6469
L10005 6469
L9968 6479
L9949 6488
L9930 6507
L9921 6535
L9921 6553
L9930 6582
L9940 6591
" />
<path d="M10137 6628
L10137 6778
" />
<path d="M10015 6891
L10024 6919
L10034 6928
L10052 6938
L10080 6938
L10099 6928
L10109 6919
L10118 6900
L10118 6825
L9921 6825
L9921 6891
L9930 6910
L9940 6919
L9959 6928
L9977 6928
L9996 6919
L10005 6910
L10015 6891
L10015 6825
" />
<path d="M11119 6535
L11110 6516
L11110 6488
L11119 6460
L11138 6441
L11157 6431
L11194 6422
L11223 6422
L11260 6431
L11279 6441
L11297 6460
L11307 6488
L11307 6506
L11297 6535
L11288 6544
L11223 6544
L11223 6506
" />
<path d="M11307 6628
L11110 6628
L11307 6741
L11110 6741
" />
<path d="M11307 6835
L11110 6835
L11110 6881
L11119 6910
L11138 6928
L11157 6938
L11194 6947
L11223 6947
L11260 6938
L11279 6928
L11297 6910
L11307 6881
L11307 6835
" />
<path d="M12188 6112
L12188 6178
" />
<path d="M12291 6206
L12291 6112
L12094 6112
L12094 6206
" />
<path d="M12291 6290
L12094 6290
L12291 6403
L12094 6403
" />
<path d="M12272 6609
L12282 6600
L12291 6571
L12291 6553
L12282 6525
L12263 6506
L12244 6497
L12207 6487
L12179 6487
L12141 6497
L12122 6506
L12104 6525
L12094 6553
L12094 6571
L12104 6600
L12113 6609
" />
<path d="M12310 6646
L12310 6796
" />
<path d="M12235 6834
L12235 6928
" />
<path d="M12291 6815
L12094 6881
L12291 6946
" />
</g>
<g style="fill:#840084; fill-opacity:0.0; 
stroke:#840084; stroke-width:118.11; stroke-opacity:1; 
stroke-linecap:round; stroke-linejoin:round;">
<path d="M13475 9845
L13137 9845
" />
<path d="M13306 10436
L13306 9845
" />
<path d="M12659 10436
L12941 10436
L12941 9845
" />
<path d="M12125 10380
L12153 10408
L12238 10436
L12294 10436
L12378 10408
L12434 10352
L12462 10295
L12491 10183
L12491 10098
L12462 9986
L12434 9930
L12378 9874
L12294 9845
L12238 9845
L12153 9874
L12125 9902
" />
<path d="M11591 9845
L11872 9845
L11900 10127
L11872 10098
L11816 10070
L11675 10070
L11619 10098
L11591 10127
L11563 10183
L11563 10323
L11591 10380
L11619 10408
L11675 10436
L11816 10436
L11872 10408
L11900 10380
" />
<path d="M11281 10436
L11169 10436
L11113 10408
L11085 10380
L11028 10295
L11000 10183
L11000 9958
L11028 9902
L11056 9874
L11113 9845
L11225 9845
L11281 9874
L11309 9902
L11338 9958
L11338 10098
L11309 10155
L11281 10183
L11225 10211
L11113 10211
L11056 10183
L11028 10155
L11000 10098
" />
<path d="M10494 10042
L10494 10436
" />
<path d="M10635 9817
L10775 10239
L10410 10239
" />
<path d="M10072 9845
L10016 9845
L9960 9874
L9932 9902
L9903 9958
L9875 10070
L9875 10211
L9903 10323
L9932 10380
L9960 10408
L10016 10436
L10072 10436
L10128 10408
L10157 10380
L10185 10323
L10213 10211
L10213 10070
L10185 9958
L10157 9902
L10128 9874
L10072 9845
" />
</g>
<g style="fill:#840084; fill-opacity:0.0; 
stroke:#840084; stroke-width:98.4252; stroke-opacity:1; 
stroke-linecap:round; stroke-linejoin:round;">
<path d="M11468 13575
L11693 13575
" />
<path d="M11580 13575
L11580 13182
L11618 13238
L11655 13275
L11693 13294
" />
<path d="M11224 13182
L11187 13182
L11149 13200
L11130 13219
L11112 13257
L11093 13332
L11093 13425
L11112 13500
L11130 13538
L11149 13556
L11187 13575
L11224 13575
L11262 13556
L11280 13538
L11299 13500
L11318 13425
L11318 13332
L11299 13257
L11280 13219
L11262 13200
L11224 13182
" />
<path d="M10924 13575
L10924 13182
" />
<path d="M10887 13425
L10774 13575
" />
<path d="M10774 13313
L10924 13463
" />
<path d="M11964 5069
L11945 5051
L11908 5032
L11814 5032
L11776 5051
L11758 5069
L11739 5107
L11739 5144
L11758 5201
L11983 5426
L11739 5426
" />
<path d="M11570 5388
L11551 5407
L11570 5426
L11589 5407
L11570 5388
L11570 5426
" />
<path d="M11401 5069
L11383 5051
L11345 5032
L11251 5032
L11214 5051
L11195 5069
L11176 5107
L11176 5144
L11195 5201
L11420 5426
L11176 5426
" />
<path d="M11008 5426
L11008 5032
" />
<path d="M10970 5276
L10858 5426
" />
<path d="M10858 5163
L11008 5313
" />
<path d="M11429 14796
L11654 14796
" />
<path d="M11541 14796
L11541 14402
L11579 14458
L11616 14496
L11654 14514
" />
<path d="M11185 14402
L11147 14402
L11110 14421
L11091 14440
L11072 14477
L11054 14552
L11054 14646
L11072 14721
L11091 14758
L11110 14777
L11147 14796
L11185 14796
L11222 14777
L11241 14758
L11260 14721
L11279 14646
L11279 14552
L11260 14477
L11241 14440
L11222 14421
L11185 14402
" />
<path d="M10885 14796
L10885 14402
" />
<path d="M10847 14646
L10735 14796
" />
<path d="M10735 14533
L10885 14683
" />
</g>
<g style="fill:#840084; fill-opacity:0.0; 
stroke:#840084; stroke-width:78.7402; stroke-opacity:1; 
stroke-linecap:round; stroke-linejoin:round;">
<path d="M18343.9 8919.68 A1555.64 1555.64 0.0 0 0 18343.9 11119.7 " />
</g>
<g style="fill:#840084; fill-opacity:0.0; 
stroke:#840084; stroke-width:98.4252; stroke-opacity:1; 
stroke-linecap:round; stroke-linejoin:round;">
<path d="M16432 17571
L16451 17628
L16451 17721
L16432 17759
L16414 17778
L16376 17796
L16339 17796
L16301 17778
L16282 17759
L16264 17721
L16245 17646
L16226 17609
L16207 17590
L16170 17571
L16132 17571
L16095 17590
L16076 17609
L16057 17646
L16057 17740
L16076 17796
" />
<path d="M16451 17965
L16057 17965
" />
<path d="M16451 18152
L16057 18152
L16451 18377
L16057 18377
" />
</g>
<g style="fill:#840084; fill-opacity:0.0; 
stroke:#840084; stroke-width:78.7402; stroke-opacity:1; 
stroke-linecap:round; stroke-linejoin:round;">
<path d="M11193 18769
L10993 18769
" />
<path d="M11193 18619
L11193 18769
" />
<path d="M11193 18769
L11193 18619
" />
<path d="M10993 18569
L11193 18769
" />
</g>
<g style="fill:#840084; fill-opacity:0.0; 
stroke:#840084; stroke-width:98.4252; stroke-opacity:1; 
stroke-linecap:round; stroke-linejoin:round;">
<path d="M15389 17191
L15408 17247
L15408 17341
L15389 17378
L15370 17397
L15333 17416
L15295 17416
L15258 17397
L15239 17378
L15220 17341
L15202 17266
L15183 17228
L15164 17209
L15127 17191
L15089 17191
L15052 17209
L15033 17228
L15014 17266
L15014 17359
L15033 17416
" />
<path d="M15014 17659
L15014 17734
L15033 17772
L15070 17809
L15145 17828
L15276 17828
L15351 17809
L15389 17772
L15408 17734
L15408 17659
L15389 17622
L15351 17584
L15276 17566
L15145 17566
L15070 17584
L15033 17622
L15014 17659
" />
<path d="M15014 17997
L15333 17997
L15370 18016
L15389 18034
L15408 18072
L15408 18147
L15389 18184
L15370 18203
L15333 18222
L15014 18222
" />
<path d="M15014 18353
L15014 18578
" />
<path d="M15408 18466
L15014 18466
" />
<path d="M13950 17031
L13931 16994
L13931 16938
L13950 16881
L13988 16844
L14025 16825
L14100 16806
L14156 16806
L14231 16825
L14269 16844
L14306 16881
L14325 16938
L14325 16975
L14306 17031
L14288 17050
L14156 17050
L14156 16975
" />
<path d="M14306 17200
L14325 17256
L14325 17350
L14306 17388
L14288 17406
L14250 17425
L14213 17425
L14175 17406
L14156 17388
L14138 17350
L14119 17275
L14100 17238
L14081 17219
L14044 17200
L14006 17200
L13969 17219
L13950 17238
L13931 17275
L13931 17369
L13950 17425
" />
<path d="M14288 17819
L14306 17800
L14325 17744
L14325 17706
L14306 17650
L14269 17613
L14231 17594
L14156 17575
L14100 17575
L14025 17594
L13988 17613
L13950 17650
L13931 17706
L13931 17744
L13950 17800
L13969 17819
" />
<path d="M14325 18175
L14325 17988
L13931 17988
" />
<path d="M14325 18306
L13931 18306
" />
<path d="M14325 18531
L14100 18362
" />
<path d="M13931 18531
L14156 18306
" />
<path d="M13154 16887
L13173 16943
L13192 16962
L13229 16981
L13285 16981
L13323 16962
L13342 16943
L13360 16906
L13360 16756
L12967 16756
L12967 16887
L12986 16925
L13004 16943
L13042 16962
L13079 16962
L13117 16943
L13136 16925
L13154 16887
L13154 16756
" />
<path d="M13360 17337
L13360 17149
L12967 17149
" />
<path d="M13248 17449
L13248 17637
" />
<path d="M13360 17412
L12967 17543
L13360 17674
" />
<path d="M13360 17806
L12967 17806
L13360 18031
L12967 18031
" />
<path d="M13360 18218
L12967 18218
" />
<path d="M13360 18443
L13136 18274
" />
<path d="M12967 18443
L13192 18218
" />
<path d="M12258 17276
L12652 17538
" />
<path d="M12258 17538
L12652 17276
" />
<path d="M12652 17876
L12652 17688
L12258 17688
" />
<path d="M12539 17988
L12539 18176
" />
<path d="M12652 17951
L12258 18082
L12652 18213
" />
<path d="M12258 18288
L12258 18513
" />
<path d="M12652 18401
L12258 18401
" />
<path d="M11098 17239
L11116 17296
L11116 17389
L11098 17427
L11079 17446
L11041 17464
L11004 17464
L10966 17446
L10948 17427
L10929 17389
L10910 17314
L10891 17277
L10873 17258
L10835 17239
L10798 17239
L10760 17258
L10741 17277
L10723 17314
L10723 17408
L10741 17464
" />
<path d="M11079 17858
L11098 17839
L11116 17783
L11116 17746
L11098 17689
L11060 17652
L11023 17633
L10948 17614
L10891 17614
L10816 17633
L10779 17652
L10741 17689
L10723 17746
L10723 17783
L10741 17839
L10760 17858
" />
<path d="M11116 18214
L11116 18027
L10723 18027
" />
<path d="M11116 18346
L10723 18346
" />
<path d="M11116 18571
L10891 18402
" />
<path d="M10723 18571
L10948 18346
" />
<path d="M10123 16382
L10123 16513
" />
<path d="M10329 16569
L10329 16382
L9935 16382
L9935 16569
" />
<path d="M10329 16738
L9935 16738
L10329 16963
L9935 16963
" />
<path d="M10291 17375
L10310 17357
L10329 17300
L10329 17263
L10310 17207
L10273 17169
L10235 17150
L10160 17132
L10104 17132
L10029 17150
L9992 17169
L9954 17207
L9935 17263
L9935 17300
L9954 17357
L9973 17375
" />
<path d="M10366 17450
L10366 17750
" />
<path d="M10329 17844
L9935 17844
L9935 17994
L9954 18032
L9973 18050
L10010 18069
L10067 18069
L10104 18050
L10123 18032
L10142 17994
L10142 17844
" />
<path d="M10123 18369
L10142 18425
L10160 18444
L10198 18463
L10254 18463
L10291 18444
L10310 18425
L10329 18388
L10329 18238
L9935 18238
L9935 18369
L9954 18407
L9973 18425
L10010 18444
L10048 18444
L10085 18425
L10104 18407
L10123 18369
L10123 18238
" />
<path d="M9375 16725
L9375 16856
" />
<path d="M9581 16912
L9581 16725
L9187 16725
L9187 16912
" />
<path d="M9581 17081
L9187 17081
L9581 17306
L9187 17306
" />
<path d="M9543 17718
L9562 17700
L9581 17643
L9581 17606
L9562 17550
L9525 17512
L9487 17494
L9412 17475
L9356 17475
L9281 17494
L9244 17512
L9206 17550
L9187 17606
L9187 17643
L9206 17700
L9225 17718
" />
<path d="M9618 17793
L9618 18093
" />
<path d="M9468 18168
L9468 18356
" />
<path d="M9581 18131
L9187 18262
L9581 18393
" />
<path d="M7918 16854
L7918 16985
" />
<path d="M8124 17042
L8124 16854
L7731 16854
L7731 17042
" />
<path d="M8124 17210
L7731 17210
L8124 17435
L7731 17435
" />
<path d="M8087 17848
L8106 17829
L8124 17773
L8124 17735
L8106 17679
L8068 17642
L8031 17623
L7956 17604
L7899 17604
L7824 17623
L7787 17642
L7749 17679
L7731 17735
L7731 17773
L7749 17829
L7768 17848
" />
<path d="M8162 17923
L8162 18223
" />
<path d="M7918 18448
L7937 18504
L7956 18523
L7993 18541
L8049 18541
L8087 18523
L8106 18504
L8124 18467
L8124 18317
L7731 18317
L7731 18448
L7749 18485
L7768 18504
L7806 18523
L7843 18523
L7881 18504
L7899 18485
L7918 18448
L7918 18317
" />
<path d="M7246 17823
L7246 18123
" />
<path d="M7396 17973
L7096 17973
" />
<path d="M7002 18498
L7002 18311
L7190 18292
L7171 18311
L7152 18348
L7152 18442
L7171 18480
L7190 18498
L7227 18517
L7321 18517
L7358 18498
L7377 18480
L7396 18442
L7396 18348
L7377 18311
L7358 18292
" />
<path d="M6130 17692
L6448 17692
L6486 17673
L6504 17655
L6523 17617
L6523 17561
L6504 17523
" />
<path d="M6373 17692
L6392 17655
L6392 17580
L6373 17542
L6354 17523
L6317 17505
L6205 17505
L6167 17523
L6148 17542
L6130 17580
L6130 17655
L6148 17692
" />
<path d="M6130 17880
L6392 17880
" />
<path d="M6167 17880
L6148 17898
L6130 17936
L6130 17992
L6148 18030
L6186 18048
L6392 18048
" />
<path d="M6392 18405
L5998 18405
" />
<path d="M6373 18405
L6392 18367
L6392 18292
L6373 18255
L6354 18236
L6317 18217
L6205 18217
L6167 18236
L6148 18255
L6130 18292
L6130 18367
L6148 18405
" />
</g>
<g style="fill:#C2C200; fill-opacity:0.0; 
stroke:#C2C200; stroke-width:39.3701; stroke-opacity:1; 
stroke-linecap:round; stroke-linejoin:round;">
<path d="M1903 208
L1903 19893
" />
<path d="M21588 208
L21588 19893
" />
<path d="M21588 19893
L1903 19893
" />
<path d="M1903 208
L21588 208
" />
</g>
<g style="fill:#840000; fill-opacity:0.0; 
stroke:#840000; stroke-width:59.0551; stroke-opacity:1; 
stroke-linecap:round; stroke-linejoin:round;">
<path d="M12362 14048
L12493 13860
" />
<path d="M12587 14048
L12587 13654
L12437 13654
L12400 13673
L12381 13691
L12362 13729
L12362 13785
L12381 13823
L12400 13841
L12437 13860
L12587 13860
" />
<path d="M11987 14048
L12212 14048
" />
<path d="M12100 14048
L12100 13654
L12137 13710
L12175 13748
L12212 13766
" />
<path d="M12480 5839
L12612 5652
" />
<path d="M12705 5839
L12705 5445
L12555 5445
L12518 5464
L12499 5483
L12480 5520
L12480 5577
L12499 5614
L12518 5633
L12555 5652
L12705 5652
" />
<path d="M12330 5483
L12312 5464
L12274 5445
L12180 5445
L12143 5464
L12124 5483
L12105 5520
L12105 5558
L12124 5614
L12349 5839
L12105 5839
" />
<path d="M12362 15209
L12493 15022
" />
<path d="M12587 15209
L12587 14815
L12437 14815
L12400 14834
L12381 14853
L12362 14890
L12362 14947
L12381 14984
L12400 15003
L12437 15022
L12587 15022
" />
<path d="M12231 14815
L11987 14815
L12118 14965
L12062 14965
L12025 14984
L12006 15003
L11987 15040
L11987 15134
L12006 15172
L12025 15190
L12062 15209
L12175 15209
L12212 15190
L12231 15172
" />
<path d="M19333 11219
L19652 11219
L19689 11238
L19708 11257
L19727 11294
L19727 11369
L19708 11407
L19689 11425
L19652 11444
L19333 11444
" />
<path d="M19727 11838
L19727 11613
" />
<path d="M19727 11725
L19333 11725
L19389 11688
L19427 11650
L19445 11613
" />
<path d="M18380 18953
L17986 18953
L17986 19103
L18005 19140
L18024 19159
L18061 19178
L18118 19178
L18155 19159
L18174 19140
L18193 19103
L18193 18953
" />
<path d="M18380 19553
L18380 19328
" />
<path d="M18380 19440
L17986 19440
L18043 19403
L18080 19365
L18099 19328
" />
</g>
<g style="fill:#840084; fill-opacity:0.0; 
stroke:#840084; stroke-width:59.0551; stroke-opacity:1; 
stroke-linecap:round; stroke-linejoin:round;">
<path d="M12647 14295
L10647 14295
" />
<path d="M10647 14295
L10647 15295
" />
<path d="M10647 15295
L12647 15295
" />
<path d="M12647 15295
L12647 14295
" />
<path d="M12647 14795
L13147 14795
" />
<path d="M10647 14795
L10147 14795
" />
<path d="M12789 4940
L10789 4940
" />
<path d="M10789 4940
L10789 5940
" />
<path d="M10789 5940
L12789 5940
" />
<path d="M12789 5940
L12789 4940
" />
<path d="M12789 5440
L13289 5440
" />
<path d="M10789 5440
L10289 5440
" />
<path d="M10667 14094
L12667 14094
" />
<path d="M12667 14094
L12667 13094
" />
<path d="M12667 13094
L10667 13094
" />
<path d="M10667 13094
L10667 14094
" />
<path d="M10667 13594
L10167 13594
" />
<path d="M12667 13594
L13167 13594
" />
<path d="M18397 11466
L17897 11466
" />
<path d="M18397 8572
L17897 8572
" />
<path d="M3590 8572
L4090 8572
" />
<path d="M3590 11466
L4090 11466
" />
<path d="M18397 11466
L18397 8572
" />
<path d="M3590 11466
L3590 8572
" />
<path d="M17897 11466
L17897 11834
" />
<path d="M15694 18744
L5694 18744
" />
<path d="M5694 18744
L5694 19744
" />
<path d="M5694 19744
L15694 19744
" />
<path d="M16804 18633
L16194 18633
" />
<path d="M15694 18744
L15694 19744
" />
<path d="M16194 19854
L16804 19854
" />
<path d="M16804 19854
L16804 18633
" />
</g>
<g style="fill:#840000; fill-opacity:1.0; 
stroke:#840000; stroke-width:0; stroke-opacity:1; 
stroke-linecap:round; stroke-linejoin:round;">
<circle cx="13647.5" cy="14795.3" r="393.5" /> 
</g>
<g style="fill:#840000; fill-opacity:1.0; 
stroke:#840000; stroke-width:39.3701; stroke-opacity:1; 
stroke-linecap:round; stroke-linejoin:round;">
</g>
<g style="fill:#840000; fill-opacity:1.0; 
stroke:#840000; stroke-width:0; stroke-opacity:1; 
stroke-linecap:round; stroke-linejoin:round;">
<circle cx="9647.45" cy="14795.3" r="393.5" /> 
</g>
<g style="fill:#840000; fill-opacity:1.0; 
stroke:#840000; stroke-width:39.3701; stroke-opacity:1; 
stroke-linecap:round; stroke-linejoin:round;">
</g>
<g style="fill:#840000; fill-opacity:1.0; 
stroke:#840000; stroke-width:0; stroke-opacity:1; 
stroke-linecap:round; stroke-linejoin:round;">
<circle cx="13789.2" cy="5440.94" r="393.5" /> 
</g>
<g style="fill:#840000; fill-opacity:1.0; 
stroke:#840000; stroke-width:39.3701; stroke-opacity:1; 
stroke-linecap:round; stroke-linejoin:round;">
</g>
<g style="fill:#840000; fill-opacity:1.0; 
stroke:#840000; stroke-width:0; stroke-opacity:1; 
stroke-linecap:round; stroke-linejoin:round;">
<circle cx="9789.18" cy="5440.94" r="393.5" /> 
</g>
<g style="fill:#840000; fill-opacity:1.0; 
stroke:#840000; stroke-width:39.3701; stroke-opacity:1; 
stroke-linecap:round; stroke-linejoin:round;">
</g>
<g style="fill:#840000; fill-opacity:1.0; 
stroke:#840000; stroke-width:0; stroke-opacity:1; 
stroke-linecap:round; stroke-linejoin:round;">
<circle cx="9667.14" cy="13594.5" r="393.5" /> 
</g>
<g style="fill:#840000; fill-opacity:1.0; 
stroke:#840000; stroke-width:39.3701; stroke-opacity:1; 
stroke-linecap:round; stroke-linejoin:round;">
</g>
<g style="fill:#840000; fill-opacity:1.0; 
stroke:#840000; stroke-width:0; stroke-opacity:1; 
stroke-linecap:round; stroke-linejoin:round;">
<circle cx="13667.1" cy="13594.5" r="393.5" /> 
</g>
<g style="fill:#840000; fill-opacity:1.0; 
stroke:#840000; stroke-width:39.3701; stroke-opacity:1; 
stroke-linecap:round; stroke-linejoin:round;">
</g>
<g style="fill:#840000; fill-opacity:1.0; 
stroke:#840000; stroke-width:629.921; stroke-opacity:1; 
stroke-linecap:round; stroke-linejoin:round;">
</g>
<g style="fill:#840000; fill-opacity:0.0; 
stroke:#840000; stroke-width:629.921; stroke-opacity:1; 
stroke-linecap:round; stroke-linejoin:round;">
<path d="M17493 11519
L17493 11519
" />
<path d="M16493 11519
L16493 11519
" />
<path d="M15493 11519
L15493 11519
" />
<path d="M14493 11519
L14493 11519
" />
<path d="M13493 11519
L13493 11519
" />
<path d="M12493 11519
L12493 11519
" />
<path d="M11493 11519
L11493 11519
" />
<path d="M10493 11519
L10493 11519
" />
<path d="M9493 11519
L9493 11519
" />
<path d="M8493 11519
L8493 11519
" />
<path d="M7493 11519
L7493 11519
" />
<path d="M6493 11519
L6493 11519
" />
<path d="M5493 11519
L5493 11519
" />
<path d="M4493 11519
L4493 11519
" />
<path d="M4493 8519
L4493 8519
" />
<path d="M5493 8519
L5493 8519
" />
<path d="M6493 8519
L6493 8519
" />
<path d="M7493 8519
L7493 8519
" />
<path d="M8493 8519
L8493 8519
" />
<path d="M9493 8519
L9493 8519
" />
<path d="M10493 8519
L10493 8519
" />
<path d="M11493 8519
L11493 8519
" />
<path d="M12493 8519
L12493 8519
" />
<path d="M13493 8519
L13493 8519
" />
<path d="M14493 8519
L14493 8519
" />
<path d="M15493 8519
L15493 8519
" />
<path d="M16493 8519
L16493 8519
" />
<path d="M17493 8519
L17493 8519
" />
</g>
<g style="fill:#840000; fill-opacity:0.0; 
stroke:#840000; stroke-width:0; stroke-opacity:1; 
stroke-linecap:round; stroke-linejoin:round;">
</g>
<g style="fill:#840000; fill-opacity:1.0; 
stroke:#840000; stroke-width:0; stroke-opacity:1; 
stroke-linecap:round; stroke-linejoin:round;">
<polyline style="fill-rule:evenodd;"
points="16534,19644
15854,19644
15854,18844
16534,18844
16534,19644
" /> 
</g>
<g style="fill:#840000; fill-opacity:1.0; 
stroke:#840000; stroke-width:680; stroke-opacity:1; 
stroke-linecap:round; stroke-linejoin:round;">
</g>
<g style="fill:#840000; fill-opacity:0.0; 
stroke:#840000; stroke-width:680; stroke-opacity:1; 
stroke-linecap:round; stroke-linejoin:round;">
<path d="M15194 19304
L15194 19184
" />
<path d="M14194 19304
L14194 19184
" />
<path d="M13194 19304
L13194 19184
" />
<path d="M12194 19304
L12194 19184
" />
<path d="M11194 19304
L11194 19184
" />
<path d="M10194 19304
L10194 19184
" />
<path d="M9194 19304
L9194 19184
" />
<path d="M8194 19304
L8194 19184
" />
<path d="M7194 19304
L7194 19184
" />
<path d="M6194 19304
L6194 19184
" />
</g> 
</svg>
