<?xml version="1.0" standalone="no"?>
 <!DOCTYPE svg PUBLIC "-//W3C//DTD SVG 1.1//EN" 
 "http://www.w3.org/Graphics/SVG/1.1/DTD/svg11.dtd"> 
<svg xmlns="http://www.w3.org/2000/svg" version="1.1" 
    width="5.96646cm" height="6.00456cm" viewBox="0 0 23490 23640 ">
<title>SVG Picture created as led_circle-F_SilkS.svg date 2015/07/08 14:06:38 </title>
  <desc>Picture generated by PCBNEW </desc>
<g style="fill:#000000; fill-opacity:1;stroke:#000000; stroke-opacity:1;
stroke-linecap:round; stroke-linejoin:round; "
 transform="translate(0 0) scale(1 1)">
</g>
<g style="fill:#008484; fill-opacity:0.0; 
stroke:#008484; stroke-width:49.2126; stroke-opacity:1; 
stroke-linecap:round; stroke-linejoin:round;">
<path d="M6618 4733
L6768 4733
" />
<path d="M6693 4808
L6693 4658
" />
<path d="M6618 3933
L6768 3933
" />
<path d="M9118 2233
L9268 2233
" />
<path d="M9118 2933
L9268 2933
" />
<path d="M9193 3008
L9193 2858
" />
<path d="M12218 1633
L12368 1633
" />
<path d="M12218 2333
L12368 2333
" />
<path d="M12293 2408
L12293 2258
" />
<path d="M15218 2233
L15368 2233
" />
<path d="M15218 3033
L15368 3033
" />
<path d="M15293 3108
L15293 2958
" />
<path d="M17818 4733
L17968 4733
" />
<path d="M17893 4808
L17893 4658
" />
<path d="M19518 6533
L19668 6533
" />
<path d="M19518 7333
L19668 7333
" />
<path d="M19593 7408
L19593 7258
" />
<path d="M20018 9633
L20168 9633
" />
<path d="M17818 4033
L17968 4033
" />
<path d="M20118 10333
L20268 10333
" />
<path d="M20193 10408
L20193 10258
" />
<path d="M18218 13333
L18368 13333
" />
<path d="M18293 13408
L18293 13258
" />
<path d="M18218 12533
L18368 12533
" />
<path d="M17818 15033
L17968 15033
" />
<path d="M17818 15833
L17968 15833
" />
<path d="M17893 15908
L17893 15758
" />
</g>
<g style="fill:#C2C200; fill-opacity:0.0; 
stroke:#C2C200; stroke-width:39.3701; stroke-opacity:1; 
stroke-linecap:round; stroke-linejoin:round;">
<path d="M1903 208
L1903 19893
" />
<path d="M21588 208
L21588 19893
" />
<path d="M21588 19893
L1903 19893
" />
<path d="M1903 208
L21588 208
" />
</g>
<g style="fill:#008484; fill-opacity:0.0; 
stroke:#008484; stroke-width:78.7402; stroke-opacity:1; 
stroke-linecap:round; stroke-linejoin:round;">
<path d="M19230 8644
L19230 8250
L19324 8250
L19380 8269
L19418 8307
L19437 8344
L19455 8419
L19455 8475
L19437 8550
L19418 8588
L19380 8625
L19324 8644
L19230 8644
" />
<path d="M19699 8250
L19737 8250
L19774 8269
L19793 8288
L19812 8325
L19830 8400
L19830 8494
L19812 8569
L19793 8607
L19774 8625
L19737 8644
L19699 8644
L19662 8625
L19643 8607
L19624 8569
L19605 8494
L19605 8400
L19624 8325
L19643 8288
L19662 8269
L19699 8250
" />
<path d="M18660 11597
L18660 11203
L18753 11203
L18809 11222
L18847 11259
L18866 11297
L18884 11372
L18884 11428
L18866 11503
L18847 11541
L18809 11578
L18753 11597
L18660 11597
" />
<path d="M19259 11597
L19034 11597
" />
<path d="M19147 11597
L19147 11203
L19109 11259
L19072 11297
L19034 11316
" />
<path d="M16799 14205
L16799 13811
L16893 13811
L16949 13830
L16987 13868
L17005 13905
L17024 13980
L17024 14036
L17005 14111
L16987 14149
L16949 14186
L16893 14205
L16799 14205
" />
<path d="M17174 13849
L17193 13830
L17230 13811
L17324 13811
L17362 13830
L17380 13849
L17399 13886
L17399 13924
L17380 13980
L17155 14205
L17399 14205
" />
<path d="M14368 15859
L14368 15465
L14462 15465
L14518 15484
L14556 15521
L14574 15559
L14593 15634
L14593 15690
L14574 15765
L14556 15802
L14518 15840
L14462 15859
L14368 15859
" />
<path d="M14724 15465
L14968 15465
L14837 15615
L14893 15615
L14931 15634
L14949 15652
L14968 15690
L14968 15784
L14949 15821
L14931 15840
L14893 15859
L14781 15859
L14743 15840
L14724 15821
" />
<path d="M11435 16518
L11435 16124
L11529 16124
L11585 16143
L11623 16181
L11641 16218
L11660 16293
L11660 16349
L11641 16424
L11623 16462
L11585 16499
L11529 16518
L11435 16518
" />
<path d="M11998 16256
L11998 16518
" />
<path d="M11904 16106
L11810 16387
L12054 16387
" />
<path d="M8384 15997
L8384 15603
L8478 15603
L8534 15622
L8571 15659
L8590 15697
L8609 15772
L8609 15828
L8590 15903
L8571 15940
L8534 15978
L8478 15997
L8384 15997
" />
<path d="M8965 15603
L8778 15603
L8759 15790
L8778 15772
L8815 15753
L8909 15753
L8946 15772
L8965 15790
L8984 15828
L8984 15922
L8965 15959
L8946 15978
L8909 15997
L8815 15997
L8778 15978
L8759 15959
" />
<path d="M5805 14245
L5805 13851
L5899 13851
L5955 13870
L5993 13907
L6011 13945
L6030 14020
L6030 14076
L6011 14151
L5993 14188
L5955 14226
L5899 14245
L5805 14245
" />
<path d="M6368 13851
L6293 13851
L6255 13870
L6236 13888
L6199 13945
L6180 14020
L6180 14170
L6199 14207
L6218 14226
L6255 14245
L6330 14245
L6368 14226
L6386 14207
L6405 14170
L6405 14076
L6386 14038
L6368 14020
L6330 14001
L6255 14001
L6218 14020
L6199 14038
L6180 14076
" />
<path d="M3453 11797
L3453 11404
L3547 11404
L3603 11422
L3640 11460
L3659 11497
L3678 11572
L3678 11629
L3659 11704
L3640 11741
L3603 11779
L3547 11797
L3453 11797
" />
<path d="M3809 11404
L4071 11404
L3903 11797
" />
<path d="M3328 8622
L3328 8229
L3422 8229
L3478 8247
L3515 8285
L3534 8322
L3553 8397
L3553 8454
L3534 8529
L3515 8566
L3478 8604
L3422 8622
L3328 8622
" />
<path d="M3778 8397
L3740 8379
L3722 8360
L3703 8322
L3703 8304
L3722 8266
L3740 8247
L3778 8229
L3853 8229
L3890 8247
L3909 8266
L3928 8304
L3928 8322
L3909 8360
L3890 8379
L3853 8397
L3778 8397
L3740 8416
L3722 8435
L3703 8472
L3703 8547
L3722 8585
L3740 8604
L3778 8622
L3853 8622
L3890 8604
L3909 8585
L3928 8547
L3928 8472
L3909 8435
L3890 8416
L3853 8397
" />
<path d="M4403 5572
L4403 5179
L4497 5179
L4553 5197
L4590 5235
L4609 5272
L4628 5347
L4628 5404
L4609 5479
L4590 5516
L4553 5554
L4497 5572
L4403 5572
" />
<path d="M4815 5572
L4890 5572
L4928 5554
L4947 5535
L4984 5479
L5003 5404
L5003 5254
L4984 5216
L4965 5197
L4928 5179
L4853 5179
L4815 5197
L4797 5216
L4778 5254
L4778 5347
L4797 5385
L4815 5404
L4853 5422
L4928 5422
L4965 5404
L4984 5385
L5003 5347
" />
<path d="M6190 2922
L6190 2529
L6284 2529
L6340 2547
L6378 2585
L6397 2622
L6415 2697
L6415 2754
L6397 2829
L6378 2866
L6340 2904
L6284 2922
L6190 2922
" />
<path d="M6790 2922
L6565 2922
" />
<path d="M6678 2922
L6678 2529
L6640 2585
L6603 2622
L6565 2641
" />
<path d="M7034 2529
L7071 2529
L7109 2547
L7128 2566
L7146 2604
L7165 2679
L7165 2772
L7146 2847
L7128 2885
L7109 2904
L7071 2922
L7034 2922
L6996 2904
L6978 2885
L6959 2847
L6940 2772
L6940 2679
L6959 2604
L6978 2566
L6996 2547
L7034 2529
" />
<path d="M9465 1347
L9465 954
L9559 954
L9615 972
L9653 1010
L9672 1047
L9690 1122
L9690 1179
L9672 1254
L9653 1291
L9615 1329
L9559 1347
L9465 1347
" />
<path d="M10065 1347
L9840 1347
" />
<path d="M9953 1347
L9953 954
L9915 1010
L9878 1047
L9840 1066
" />
<path d="M10440 1347
L10215 1347
" />
<path d="M10328 1347
L10328 954
L10290 1010
L10253 1047
L10215 1066
" />
<path d="M11179 741
L11179 347
L11272 347
L11329 366
L11366 403
L11385 441
L11404 516
L11404 572
L11385 647
L11366 684
L11329 722
L11272 741
L11179 741
" />
<path d="M11779 741
L11554 741
" />
<path d="M11666 741
L11666 347
L11629 403
L11591 441
L11554 459
" />
<path d="M11929 384
L11947 366
L11985 347
L12079 347
L12116 366
L12135 384
L12154 422
L12154 459
L12135 516
L11910 741
L12154 741
" />
<path d="M14131 1341
L14131 947
L14225 947
L14281 966
L14319 1004
L14338 1041
L14356 1116
L14356 1172
L14338 1247
L14319 1285
L14281 1322
L14225 1341
L14131 1341
" />
<path d="M14731 1341
L14506 1341
" />
<path d="M14619 1341
L14619 947
L14581 1004
L14544 1041
L14506 1060
" />
<path d="M14863 947
L15106 947
L14975 1097
L15031 1097
L15069 1116
L15088 1135
L15106 1172
L15106 1266
L15088 1303
L15069 1322
L15031 1341
L14919 1341
L14881 1322
L14863 1303
" />
<path d="M16779 3034
L16779 2640
L16873 2640
L16929 2659
L16967 2696
L16985 2734
L17004 2809
L17004 2865
L16985 2940
L16967 2978
L16929 3015
L16873 3034
L16779 3034
" />
<path d="M17379 3034
L17154 3034
" />
<path d="M17267 3034
L17267 2640
L17229 2696
L17192 2734
L17154 2753
" />
<path d="M17717 2771
L17717 3034
" />
<path d="M17623 2621
L17529 2903
L17773 2903
" />
<path d="M18482 5554
L18482 5160
L18576 5160
L18632 5179
L18669 5216
L18688 5254
L18707 5329
L18707 5385
L18688 5460
L18669 5497
L18632 5535
L18576 5554
L18482 5554
" />
<path d="M19082 5554
L18857 5554
" />
<path d="M18969 5554
L18969 5160
L18932 5216
L18894 5254
L18857 5272
" />
<path d="M19438 5160
L19251 5160
L19232 5347
L19251 5329
L19288 5310
L19382 5310
L19419 5329
L19438 5347
L19457 5385
L19457 5479
L19438 5516
L19419 5535
L19382 5554
L19288 5554
L19251 5535
L19232 5516
" />
</g>
<g style="fill:#008484; fill-opacity:0.0; 
stroke:#008484; stroke-width:79; stroke-opacity:1; 
stroke-linecap:round; stroke-linejoin:round;">
<path d="M11251 5914
L11448 5914
" />
<path d="M11532 6224
L11251 6224
L11251 5633
L11532 5633
" />
<path d="M12095 6224
L11757 6224
" />
<path d="M11926 6224
L11926 5633
L11870 5717
L11814 5773
L11757 5801
" />
<path d="M8436 12922
L8633 12922
" />
<path d="M8718 13232
L8436 13232
L8436 12641
L8718 12641
" />
<path d="M8971 12838
L8971 13232
" />
<path d="M8971 12894
L8999 12866
L9056 12838
L9140 12838
L9196 12866
L9224 12922
L9224 13232
" />
<path d="M9759 13203
L9703 13232
L9590 13232
L9534 13203
L9506 13175
L9478 13119
L9478 12950
L9506 12894
L9534 12866
L9590 12838
L9703 12838
L9759 12866
" />
<path d="M10097 13232
L10041 13203
L10012 13175
L9984 13119
L9984 12950
L10012 12894
L10041 12866
L10097 12838
L10181 12838
L10238 12866
L10266 12894
L10294 12950
L10294 13119
L10266 13175
L10238 13203
L10181 13232
L10097 13232
" />
<path d="M10800 13232
L10800 12641
" />
<path d="M10800 13203
L10744 13232
L10632 13232
L10575 13203
L10547 13175
L10519 13119
L10519 12950
L10547 12894
L10575 12866
L10632 12838
L10744 12838
L10800 12866
" />
<path d="M11307 13203
L11251 13232
L11138 13232
L11082 13203
L11054 13147
L11054 12922
L11082 12866
L11138 12838
L11251 12838
L11307 12866
L11335 12922
L11335 12978
L11054 13035
" />
<path d="M11588 13232
L11588 12838
" />
<path d="M11588 12950
L11617 12894
L11645 12866
L11701 12838
L11757 12838
" />
<path d="M11814 13288
L12264 13288
" />
<path d="M12376 13203
L12433 13232
L12545 13232
L12602 13203
L12630 13147
L12630 13119
L12602 13063
L12545 13035
L12461 13035
L12405 13006
L12376 12950
L12376 12922
L12405 12866
L12461 12838
L12545 12838
L12602 12866
" />
<path d="M12827 12838
L12939 13232
L13052 12950
L13164 13232
L13277 12838
" />
<path d="M13502 13232
L13502 12838
" />
<path d="M13502 12641
L13474 12669
L13502 12697
L13530 12669
L13502 12641
L13502 12697
" />
<path d="M13699 12838
L13924 12838
" />
<path d="M13784 12641
L13784 13147
L13812 13203
L13868 13232
L13924 13232
" />
<path d="M14375 13203
L14318 13232
L14206 13232
L14149 13203
L14121 13175
L14093 13119
L14093 12950
L14121 12894
L14149 12866
L14206 12838
L14318 12838
L14375 12866
" />
<path d="M14628 13232
L14628 12641
" />
<path d="M14881 13232
L14881 12922
L14853 12866
L14797 12838
L14712 12838
L14656 12866
L14628 12894
" />
</g>
<g style="fill:#C2C200; fill-opacity:0.0; 
stroke:#C2C200; stroke-width:59.0551; stroke-opacity:1; 
stroke-linecap:round; stroke-linejoin:round;">
<path d="M19783 1745
L19652 1557
" />
<path d="M19558 1745
L19558 1351
L19708 1351
L19746 1370
L19765 1388
L19783 1426
L19783 1482
L19765 1520
L19746 1538
L19708 1557
L19558 1557
" />
<path d="M19952 1538
L20083 1538
" />
<path d="M20140 1745
L19952 1745
L19952 1351
L20140 1351
" />
<path d="M20440 1538
L20308 1538
" />
<path d="M20308 1745
L20308 1351
L20496 1351
" />
<path d="M20702 1351
L20702 1445
" />
<path d="M20608 1407
L20702 1445
L20796 1407
" />
<path d="M20646 1520
L20702 1445
L20758 1520
" />
<path d="M21002 1351
L21002 1445
" />
<path d="M20908 1407
L21002 1445
L21096 1407
" />
<path d="M20946 1520
L21002 1445
L21058 1520
" />
<path d="M2815 1567
L2684 1380
" />
<path d="M2590 1567
L2590 1174
L2740 1174
L2777 1192
L2796 1211
L2815 1249
L2815 1305
L2796 1342
L2777 1361
L2740 1380
L2590 1380
" />
<path d="M2984 1361
L3115 1361
" />
<path d="M3171 1567
L2984 1567
L2984 1174
L3171 1174
" />
<path d="M3471 1361
L3340 1361
" />
<path d="M3340 1567
L3340 1174
L3527 1174
" />
<path d="M3734 1174
L3734 1267
" />
<path d="M3640 1230
L3734 1267
L3827 1230
" />
<path d="M3677 1342
L3734 1267
L3790 1342
" />
<path d="M4034 1174
L4034 1267
" />
<path d="M3940 1230
L4034 1267
L4127 1230
" />
<path d="M3977 1342
L4034 1267
L4090 1342
" />
<path d="M19665 19205
L19534 19018
" />
<path d="M19440 19205
L19440 18811
L19590 18811
L19628 18830
L19647 18849
L19665 18886
L19665 18943
L19647 18980
L19628 18999
L19590 19018
L19440 19018
" />
<path d="M19834 18999
L19965 18999
" />
<path d="M20022 19205
L19834 19205
L19834 18811
L20022 18811
" />
<path d="M20321 18999
L20190 18999
" />
<path d="M20190 19205
L20190 18811
L20378 18811
" />
<path d="M20584 18811
L20584 18905
" />
<path d="M20490 18868
L20584 18905
L20678 18868
" />
<path d="M20528 18980
L20584 18905
L20640 18980
" />
<path d="M20884 18811
L20884 18905
" />
<path d="M20790 18868
L20884 18905
L20978 18868
" />
<path d="M20828 18980
L20884 18905
L20940 18980
" />
<path d="M2894 18398
L2762 18211
" />
<path d="M2669 18398
L2669 18004
L2819 18004
L2856 18023
L2875 18042
L2894 18079
L2894 18136
L2875 18173
L2856 18192
L2819 18211
L2669 18211
" />
<path d="M3062 18192
L3194 18192
" />
<path d="M3250 18398
L3062 18398
L3062 18004
L3250 18004
" />
<path d="M3550 18192
L3419 18192
" />
<path d="M3419 18398
L3419 18004
L3606 18004
" />
<path d="M3812 18004
L3812 18098
" />
<path d="M3719 18061
L3812 18098
L3906 18061
" />
<path d="M3756 18173
L3812 18098
L3869 18173
" />
<path d="M4112 18004
L4112 18098
" />
<path d="M4019 18061
L4112 18098
L4206 18061
" />
<path d="M4056 18173
L4112 18098
L4169 18173
" />
</g>
<g style="fill:#008484; fill-opacity:0.0; 
stroke:#008484; stroke-width:118; stroke-opacity:1; 
stroke-linecap:round; stroke-linejoin:round;">
<path d="M18970 10905
L20128 10905
" />
<path d="M20136 10901.3 A1142.35 1142.35 0.0 0 0 20529 9334.26 " />
<path d="M18565 9342.26 A1141.71 1141.71 0.0 0 0 18970 10905.3 " />
<path d="M20691 9921.26 A1142 1142 0.0 0 0 19549 8779.26 " />
<path d="M19549 8779.26 A1142 1142 0.0 0 0 18407 9921.26 " />
<circle cx="19549" cy="9921.26" r="984" /> 
<path d="M18370 13918
L19528 13918
" />
<path d="M19536.7 13914.5 A1142.35 1142.35 0.0 0 0 19929.7 12347.5 " />
<path d="M17965.7 12355.5 A1141.71 1141.71 0.0 0 0 18370.7 13918.5 " />
<path d="M20091.7 12934.5 A1142 1142 0.0 0 0 18949.7 11792.5 " />
<path d="M18949.7 11792.5 A1142 1142 0.0 0 0 17807.7 12934.5 " />
<circle cx="18949.7" cy="12934.5" r="984" /> 
<path d="M16663 16473
L17821 16473
" />
<path d="M17829.8 16469 A1142.35 1142.35 0.0 0 0 18222.8 14902 " />
<path d="M16258.8 14910 A1141.71 1141.71 0.0 0 0 16663.8 16473 " />
<path d="M18384.8 15489 A1142 1142 0.0 0 0 17242.8 14347 " />
<path d="M17242.8 14347 A1142 1142 0.0 0 0 16100.8 15489 " />
<circle cx="17242.8" cy="15489" r="984" /> 
<path d="M14109 18179
L15267 18179
" />
<path d="M15275.3 18175.9 A1142.35 1142.35 0.0 0 0 15668.3 16608.9 " />
<path d="M13704.3 16616.9 A1141.71 1141.71 0.0 0 0 14109.3 18179.9 " />
<path d="M15830.3 17195.9 A1142 1142 0.0 0 0 14688.3 16053.9 " />
<path d="M14688.3 16053.9 A1142 1142 0.0 0 0 13546.3 17195.9 " />
<circle cx="14688.3" cy="17195.9" r="984" /> 
<path d="M11096 18779
L12254 18779
" />
<path d="M12262 18775.3 A1142.35 1142.35 0.0 0 0 12655 17208.3 " />
<path d="M10691 17216.3 A1141.71 1141.71 0.0 0 0 11096 18779.3 " />
<path d="M12817 17795.3 A1142 1142 0.0 0 0 11675 16653.3 " />
<path d="M11675 16653.3 A1142 1142 0.0 0 0 10533 17795.3 " />
<circle cx="11675" cy="17795.3" r="984" /> 
<path d="M8082 18179
L9240 18179
" />
<path d="M9248.75 18175.9 A1142.35 1142.35 0.0 0 0 9641.75 16608.9 " />
<path d="M7677.75 16616.9 A1141.71 1141.71 0.0 0 0 8082.75 18179.9 " />
<path d="M9803.75 17195.9 A1142 1142 0.0 0 0 8661.75 16053.9 " />
<path d="M8661.75 16053.9 A1142 1142 0.0 0 0 7519.75 17195.9 " />
<circle cx="8661.75" cy="17195.9" r="984" /> 
<path d="M5528 16473
L6686 16473
" />
<path d="M6694.24 16469 A1142.35 1142.35 0.0 0 0 7087.24 14902 " />
<path d="M5123.24 14910 A1141.71 1141.71 0.0 0 0 5528.24 16473 " />
<path d="M7249.24 15489 A1142 1142 0.0 0 0 6107.24 14347 " />
<path d="M6107.24 14347 A1142 1142 0.0 0 0 4965.24 15489 " />
<circle cx="6107.24" cy="15489" r="984" /> 
<path d="M3821 13918
L4979 13918
" />
<path d="M4987.37 13914.5 A1142.35 1142.35 0.0 0 0 5380.37 12347.5 " />
<path d="M3416.37 12355.5 A1141.71 1141.71 0.0 0 0 3821.37 13918.5 " />
<path d="M5542.37 12934.5 A1142 1142 0.0 0 0 4400.37 11792.5 " />
<path d="M4400.37 11792.5 A1142 1142 0.0 0 0 3258.37 12934.5 " />
<circle cx="4400.37" cy="12934.5" r="984" /> 
<path d="M3221 10905
L4379 10905
" />
<path d="M4387.99 10901.3 A1142.35 1142.35 0.0 0 0 4780.99 9334.26 " />
<path d="M2816.99 9342.26 A1141.71 1141.71 0.0 0 0 3221.99 10905.3 " />
<path d="M4942.99 9921.26 A1142 1142 0.0 0 0 3800.99 8779.26 " />
<path d="M3800.99 8779.26 A1142 1142 0.0 0 0 2658.99 9921.26 " />
<circle cx="3800.99" cy="9921.26" r="984" /> 
<path d="M3821 7892
L4979 7892
" />
<path d="M4987.37 7888 A1142.35 1142.35 0.0 0 0 5380.37 6321 " />
<path d="M3416.37 6329 A1141.71 1141.71 0.0 0 0 3821.37 7892 " />
<path d="M5542.37 6908 A1142 1142 0.0 0 0 4400.37 5766 " />
<path d="M4400.37 5766 A1142 1142 0.0 0 0 3258.37 6908 " />
<circle cx="4400.37" cy="6908" r="984" /> 
<path d="M5528 5337
L6686 5337
" />
<path d="M6694.24 5333.49 A1142.35 1142.35 0.0 0 0 7087.24 3766.49 " />
<path d="M5123.24 3774.49 A1141.71 1141.71 0.0 0 0 5528.24 5337.49 " />
<path d="M7249.24 4353.49 A1142 1142 0.0 0 0 6107.24 3211.49 " />
<path d="M6107.24 3211.49 A1142 1142 0.0 0 0 4965.24 4353.49 " />
<circle cx="6107.24" cy="4353.49" r="984" /> 
<path d="M8082 3630
L9240 3630
" />
<path d="M9248.75 3626.62 A1142.35 1142.35 0.0 0 0 9641.75 2059.62 " />
<path d="M7677.75 2067.62 A1141.71 1141.71 0.0 0 0 8082.75 3630.62 " />
<path d="M9803.75 2646.62 A1142 1142 0.0 0 0 8661.75 1504.62 " />
<path d="M8661.75 1504.62 A1142 1142 0.0 0 0 7519.75 2646.62 " />
<circle cx="8661.75" cy="2646.62" r="984" /> 
<path d="M11096 3031
L12254 3031
" />
<path d="M12262 3027.24 A1142.35 1142.35 0.0 0 0 12655 1460.24 " />
<path d="M10691 1468.24 A1141.71 1141.71 0.0 0 0 11096 3031.24 " />
<path d="M12817 2047.24 A1142 1142 0.0 0 0 11675 905.244 " />
<path d="M11675 905.244 A1142 1142 0.0 0 0 10533 2047.24 " />
<circle cx="11675" cy="2047.24" r="984" /> 
<path d="M14109 3630
L15267 3630
" />
<path d="M15275.3 3626.62 A1142.35 1142.35 0.0 0 0 15668.3 2059.62 " />
<path d="M13704.3 2067.62 A1141.71 1141.71 0.0 0 0 14109.3 3630.62 " />
<path d="M15830.3 2646.62 A1142 1142 0.0 0 0 14688.3 1504.62 " />
<path d="M14688.3 1504.62 A1142 1142 0.0 0 0 13546.3 2646.62 " />
<circle cx="14688.3" cy="2646.62" r="984" /> 
<path d="M16663 5337
L17821 5337
" />
<path d="M17829.8 5333.49 A1142.35 1142.35 0.0 0 0 18222.8 3766.49 " />
<path d="M16258.8 3774.49 A1141.71 1141.71 0.0 0 0 16663.8 5337.49 " />
<path d="M18384.8 4353.49 A1142 1142 0.0 0 0 17242.8 3211.49 " />
<path d="M17242.8 3211.49 A1142 1142 0.0 0 0 16100.8 4353.49 " />
<circle cx="17242.8" cy="4353.49" r="984" /> 
<path d="M18370 7892
L19528 7892
" />
<path d="M19536.7 7888 A1142.35 1142.35 0.0 0 0 19929.7 6321 " />
<path d="M17965.7 6329 A1141.71 1141.71 0.0 0 0 18370.7 7892 " />
<path d="M20091.7 6908 A1142 1142 0.0 0 0 18949.7 5766 " />
<path d="M18949.7 5766 A1142 1142 0.0 0 0 17807.7 6908 " />
<circle cx="18949.7" cy="6908" r="984" /> 
</g>
<g style="fill:#008484; fill-opacity:0.0; 
stroke:#008484; stroke-width:150; stroke-opacity:1; 
stroke-linecap:round; stroke-linejoin:round;">
<circle cx="10045.3" cy="7885.7" r="158" /> 
<circle cx="13273.3" cy="7885.7" r="158" /> 
<circle cx="10045.3" cy="11901.7" r="157" /> 
<circle cx="13273.3" cy="11901.7" r="158" /> 
<path d="M12683 10484
L10635 10484
" />
<circle cx="11659.3" cy="9893.7" r="1181" /> 
<circle cx="11659.3" cy="9893.7" r="1339" /> 
<path d="M14100 7295
L9218 7295
" />
<path d="M9218 7295
L9218 12491
" />
<path d="M9218 12491
L14100 12491
" />
<path d="M14100 12491
L14100 7295
" />
</g>
<g style="fill:#840000; fill-opacity:1.0; 
stroke:#840000; stroke-width:0; stroke-opacity:1; 
stroke-linecap:round; stroke-linejoin:round;">
<circle cx="19549" cy="9421.26" r="393.5" /> 
</g>
<g style="fill:#840000; fill-opacity:1.0; 
stroke:#840000; stroke-width:39.3701; stroke-opacity:1; 
stroke-linecap:round; stroke-linejoin:round;">
</g>
<g style="fill:#840000; fill-opacity:1.0; 
stroke:#840000; stroke-width:0; stroke-opacity:1; 
stroke-linecap:round; stroke-linejoin:round;">
<circle cx="19549" cy="10421.3" r="393.5" /> 
</g>
<g style="fill:#840000; fill-opacity:1.0; 
stroke:#840000; stroke-width:39.3701; stroke-opacity:1; 
stroke-linecap:round; stroke-linejoin:round;">
</g>
<g style="fill:#840000; fill-opacity:1.0; 
stroke:#840000; stroke-width:0; stroke-opacity:1; 
stroke-linecap:round; stroke-linejoin:round;">
<circle cx="18949.7" cy="12434.5" r="393.5" /> 
</g>
<g style="fill:#840000; fill-opacity:1.0; 
stroke:#840000; stroke-width:39.3701; stroke-opacity:1; 
stroke-linecap:round; stroke-linejoin:round;">
</g>
<g style="fill:#840000; fill-opacity:1.0; 
stroke:#840000; stroke-width:0; stroke-opacity:1; 
stroke-linecap:round; stroke-linejoin:round;">
<circle cx="18949.7" cy="13434.5" r="393.5" /> 
</g>
<g style="fill:#840000; fill-opacity:1.0; 
stroke:#840000; stroke-width:39.3701; stroke-opacity:1; 
stroke-linecap:round; stroke-linejoin:round;">
</g>
<g style="fill:#840000; fill-opacity:1.0; 
stroke:#840000; stroke-width:0; stroke-opacity:1; 
stroke-linecap:round; stroke-linejoin:round;">
<circle cx="17242.8" cy="14989" r="393.5" /> 
</g>
<g style="fill:#840000; fill-opacity:1.0; 
stroke:#840000; stroke-width:39.3701; stroke-opacity:1; 
stroke-linecap:round; stroke-linejoin:round;">
</g>
<g style="fill:#840000; fill-opacity:1.0; 
stroke:#840000; stroke-width:0; stroke-opacity:1; 
stroke-linecap:round; stroke-linejoin:round;">
<circle cx="17242.8" cy="15989" r="393.5" /> 
</g>
<g style="fill:#840000; fill-opacity:1.0; 
stroke:#840000; stroke-width:39.3701; stroke-opacity:1; 
stroke-linecap:round; stroke-linejoin:round;">
</g>
<g style="fill:#840000; fill-opacity:1.0; 
stroke:#840000; stroke-width:0; stroke-opacity:1; 
stroke-linecap:round; stroke-linejoin:round;">
<circle cx="14688.3" cy="16695.9" r="393.5" /> 
</g>
<g style="fill:#840000; fill-opacity:1.0; 
stroke:#840000; stroke-width:39.3701; stroke-opacity:1; 
stroke-linecap:round; stroke-linejoin:round;">
</g>
<g style="fill:#840000; fill-opacity:1.0; 
stroke:#840000; stroke-width:0; stroke-opacity:1; 
stroke-linecap:round; stroke-linejoin:round;">
<circle cx="14688.3" cy="17695.9" r="393.5" /> 
</g>
<g style="fill:#840000; fill-opacity:1.0; 
stroke:#840000; stroke-width:39.3701; stroke-opacity:1; 
stroke-linecap:round; stroke-linejoin:round;">
</g>
<g style="fill:#840000; fill-opacity:1.0; 
stroke:#840000; stroke-width:0; stroke-opacity:1; 
stroke-linecap:round; stroke-linejoin:round;">
<circle cx="11675" cy="17295.3" r="393.5" /> 
</g>
<g style="fill:#840000; fill-opacity:1.0; 
stroke:#840000; stroke-width:39.3701; stroke-opacity:1; 
stroke-linecap:round; stroke-linejoin:round;">
</g>
<g style="fill:#840000; fill-opacity:1.0; 
stroke:#840000; stroke-width:0; stroke-opacity:1; 
stroke-linecap:round; stroke-linejoin:round;">
<circle cx="11675" cy="18295.3" r="393.5" /> 
</g>
<g style="fill:#840000; fill-opacity:1.0; 
stroke:#840000; stroke-width:39.3701; stroke-opacity:1; 
stroke-linecap:round; stroke-linejoin:round;">
</g>
<g style="fill:#840000; fill-opacity:1.0; 
stroke:#840000; stroke-width:0; stroke-opacity:1; 
stroke-linecap:round; stroke-linejoin:round;">
<circle cx="8661.75" cy="16695.9" r="393.5" /> 
</g>
<g style="fill:#840000; fill-opacity:1.0; 
stroke:#840000; stroke-width:39.3701; stroke-opacity:1; 
stroke-linecap:round; stroke-linejoin:round;">
</g>
<g style="fill:#840000; fill-opacity:1.0; 
stroke:#840000; stroke-width:0; stroke-opacity:1; 
stroke-linecap:round; stroke-linejoin:round;">
<circle cx="8661.75" cy="17695.9" r="393.5" /> 
</g>
<g style="fill:#840000; fill-opacity:1.0; 
stroke:#840000; stroke-width:39.3701; stroke-opacity:1; 
stroke-linecap:round; stroke-linejoin:round;">
</g>
<g style="fill:#840000; fill-opacity:1.0; 
stroke:#840000; stroke-width:0; stroke-opacity:1; 
stroke-linecap:round; stroke-linejoin:round;">
<circle cx="6107.24" cy="14989" r="393.5" /> 
</g>
<g style="fill:#840000; fill-opacity:1.0; 
stroke:#840000; stroke-width:39.3701; stroke-opacity:1; 
stroke-linecap:round; stroke-linejoin:round;">
</g>
<g style="fill:#840000; fill-opacity:1.0; 
stroke:#840000; stroke-width:0; stroke-opacity:1; 
stroke-linecap:round; stroke-linejoin:round;">
<circle cx="6107.24" cy="15989" r="393.5" /> 
</g>
<g style="fill:#840000; fill-opacity:1.0; 
stroke:#840000; stroke-width:39.3701; stroke-opacity:1; 
stroke-linecap:round; stroke-linejoin:round;">
</g>
<g style="fill:#840000; fill-opacity:1.0; 
stroke:#840000; stroke-width:0; stroke-opacity:1; 
stroke-linecap:round; stroke-linejoin:round;">
<circle cx="4400.37" cy="12434.5" r="393.5" /> 
</g>
<g style="fill:#840000; fill-opacity:1.0; 
stroke:#840000; stroke-width:39.3701; stroke-opacity:1; 
stroke-linecap:round; stroke-linejoin:round;">
</g>
<g style="fill:#840000; fill-opacity:1.0; 
stroke:#840000; stroke-width:0; stroke-opacity:1; 
stroke-linecap:round; stroke-linejoin:round;">
<circle cx="4400.37" cy="13434.5" r="393.5" /> 
</g>
<g style="fill:#840000; fill-opacity:1.0; 
stroke:#840000; stroke-width:39.3701; stroke-opacity:1; 
stroke-linecap:round; stroke-linejoin:round;">
</g>
<g style="fill:#840000; fill-opacity:1.0; 
stroke:#840000; stroke-width:0; stroke-opacity:1; 
stroke-linecap:round; stroke-linejoin:round;">
<circle cx="3800.99" cy="9421.26" r="393.5" /> 
</g>
<g style="fill:#840000; fill-opacity:1.0; 
stroke:#840000; stroke-width:39.3701; stroke-opacity:1; 
stroke-linecap:round; stroke-linejoin:round;">
</g>
<g style="fill:#840000; fill-opacity:1.0; 
stroke:#840000; stroke-width:0; stroke-opacity:1; 
stroke-linecap:round; stroke-linejoin:round;">
<circle cx="3800.99" cy="10421.3" r="393.5" /> 
</g>
<g style="fill:#840000; fill-opacity:1.0; 
stroke:#840000; stroke-width:39.3701; stroke-opacity:1; 
stroke-linecap:round; stroke-linejoin:round;">
</g>
<g style="fill:#840000; fill-opacity:1.0; 
stroke:#840000; stroke-width:0; stroke-opacity:1; 
stroke-linecap:round; stroke-linejoin:round;">
<circle cx="4400.37" cy="6408" r="393.5" /> 
</g>
<g style="fill:#840000; fill-opacity:1.0; 
stroke:#840000; stroke-width:39.3701; stroke-opacity:1; 
stroke-linecap:round; stroke-linejoin:round;">
</g>
<g style="fill:#840000; fill-opacity:1.0; 
stroke:#840000; stroke-width:0; stroke-opacity:1; 
stroke-linecap:round; stroke-linejoin:round;">
<circle cx="4400.37" cy="7408" r="393.5" /> 
</g>
<g style="fill:#840000; fill-opacity:1.0; 
stroke:#840000; stroke-width:39.3701; stroke-opacity:1; 
stroke-linecap:round; stroke-linejoin:round;">
</g>
<g style="fill:#840000; fill-opacity:1.0; 
stroke:#840000; stroke-width:0; stroke-opacity:1; 
stroke-linecap:round; stroke-linejoin:round;">
<circle cx="6107.24" cy="3853.49" r="393.5" /> 
</g>
<g style="fill:#840000; fill-opacity:1.0; 
stroke:#840000; stroke-width:39.3701; stroke-opacity:1; 
stroke-linecap:round; stroke-linejoin:round;">
</g>
<g style="fill:#840000; fill-opacity:1.0; 
stroke:#840000; stroke-width:0; stroke-opacity:1; 
stroke-linecap:round; stroke-linejoin:round;">
<circle cx="6107.24" cy="4853.49" r="393.5" /> 
</g>
<g style="fill:#840000; fill-opacity:1.0; 
stroke:#840000; stroke-width:39.3701; stroke-opacity:1; 
stroke-linecap:round; stroke-linejoin:round;">
</g>
<g style="fill:#840000; fill-opacity:1.0; 
stroke:#840000; stroke-width:0; stroke-opacity:1; 
stroke-linecap:round; stroke-linejoin:round;">
<circle cx="8661.75" cy="2146.62" r="393.5" /> 
</g>
<g style="fill:#840000; fill-opacity:1.0; 
stroke:#840000; stroke-width:39.3701; stroke-opacity:1; 
stroke-linecap:round; stroke-linejoin:round;">
</g>
<g style="fill:#840000; fill-opacity:1.0; 
stroke:#840000; stroke-width:0; stroke-opacity:1; 
stroke-linecap:round; stroke-linejoin:round;">
<circle cx="8661.75" cy="3146.62" r="393.5" /> 
</g>
<g style="fill:#840000; fill-opacity:1.0; 
stroke:#840000; stroke-width:39.3701; stroke-opacity:1; 
stroke-linecap:round; stroke-linejoin:round;">
</g>
<g style="fill:#840000; fill-opacity:1.0; 
stroke:#840000; stroke-width:0; stroke-opacity:1; 
stroke-linecap:round; stroke-linejoin:round;">
<circle cx="11675" cy="1547.24" r="393.5" /> 
</g>
<g style="fill:#840000; fill-opacity:1.0; 
stroke:#840000; stroke-width:39.3701; stroke-opacity:1; 
stroke-linecap:round; stroke-linejoin:round;">
</g>
<g style="fill:#840000; fill-opacity:1.0; 
stroke:#840000; stroke-width:0; stroke-opacity:1; 
stroke-linecap:round; stroke-linejoin:round;">
<circle cx="11675" cy="2547.24" r="393.5" /> 
</g>
<g style="fill:#840000; fill-opacity:1.0; 
stroke:#840000; stroke-width:39.3701; stroke-opacity:1; 
stroke-linecap:round; stroke-linejoin:round;">
</g>
<g style="fill:#840000; fill-opacity:1.0; 
stroke:#840000; stroke-width:0; stroke-opacity:1; 
stroke-linecap:round; stroke-linejoin:round;">
<circle cx="14688.3" cy="2146.62" r="393.5" /> 
</g>
<g style="fill:#840000; fill-opacity:1.0; 
stroke:#840000; stroke-width:39.3701; stroke-opacity:1; 
stroke-linecap:round; stroke-linejoin:round;">
</g>
<g style="fill:#840000; fill-opacity:1.0; 
stroke:#840000; stroke-width:0; stroke-opacity:1; 
stroke-linecap:round; stroke-linejoin:round;">
<circle cx="14688.3" cy="3146.62" r="393.5" /> 
</g>
<g style="fill:#840000; fill-opacity:1.0; 
stroke:#840000; stroke-width:39.3701; stroke-opacity:1; 
stroke-linecap:round; stroke-linejoin:round;">
</g>
<g style="fill:#840000; fill-opacity:1.0; 
stroke:#840000; stroke-width:0; stroke-opacity:1; 
stroke-linecap:round; stroke-linejoin:round;">
<circle cx="17242.8" cy="3853.49" r="393.5" /> 
</g>
<g style="fill:#840000; fill-opacity:1.0; 
stroke:#840000; stroke-width:39.3701; stroke-opacity:1; 
stroke-linecap:round; stroke-linejoin:round;">
</g>
<g style="fill:#840000; fill-opacity:1.0; 
stroke:#840000; stroke-width:0; stroke-opacity:1; 
stroke-linecap:round; stroke-linejoin:round;">
<circle cx="17242.8" cy="4853.49" r="393.5" /> 
</g>
<g style="fill:#840000; fill-opacity:1.0; 
stroke:#840000; stroke-width:39.3701; stroke-opacity:1; 
stroke-linecap:round; stroke-linejoin:round;">
</g>
<g style="fill:#840000; fill-opacity:1.0; 
stroke:#840000; stroke-width:0; stroke-opacity:1; 
stroke-linecap:round; stroke-linejoin:round;">
<circle cx="18949.7" cy="6408" r="393.5" /> 
</g>
<g style="fill:#840000; fill-opacity:1.0; 
stroke:#840000; stroke-width:39.3701; stroke-opacity:1; 
stroke-linecap:round; stroke-linejoin:round;">
</g>
<g style="fill:#840000; fill-opacity:1.0; 
stroke:#840000; stroke-width:0; stroke-opacity:1; 
stroke-linecap:round; stroke-linejoin:round;">
<circle cx="18949.7" cy="7408" r="393.5" /> 
</g>
<g style="fill:#840000; fill-opacity:1.0; 
stroke:#840000; stroke-width:39.3701; stroke-opacity:1; 
stroke-linecap:round; stroke-linejoin:round;">
</g>
<g style="fill:#840000; fill-opacity:1.0; 
stroke:#840000; stroke-width:591; stroke-opacity:1; 
stroke-linecap:round; stroke-linejoin:round;">
</g>
<g style="fill:#840000; fill-opacity:0.0; 
stroke:#840000; stroke-width:591; stroke-opacity:1; 
stroke-linecap:round; stroke-linejoin:round;">
<path d="M12643 7038
L12643 6842
" />
<path d="M11659 7038
L11659 6842
" />
<path d="M10675 7038
L10675 6842
" />
</g>
<g style="fill:#840000; fill-opacity:1.0; 
stroke:#840000; stroke-width:0; stroke-opacity:1; 
stroke-linecap:round; stroke-linejoin:round;">
<circle cx="14100.3" cy="9893.7" r="689" /> 
</g>
<g style="fill:#840000; fill-opacity:1.0; 
stroke:#840000; stroke-width:39.3701; stroke-opacity:1; 
stroke-linecap:round; stroke-linejoin:round;">
</g>
<g style="fill:#840000; fill-opacity:1.0; 
stroke:#840000; stroke-width:0; stroke-opacity:1; 
stroke-linecap:round; stroke-linejoin:round;">
<circle cx="9218.26" cy="9893.7" r="689" /> 
</g>
<g style="fill:#840000; fill-opacity:1.0; 
stroke:#840000; stroke-width:39.3701; stroke-opacity:1; 
stroke-linecap:round; stroke-linejoin:round;">
</g>
<g style="fill:#840000; fill-opacity:1.0; 
stroke:#840000; stroke-width:591; stroke-opacity:1; 
stroke-linecap:round; stroke-linejoin:round;">
</g>
<g style="fill:#840000; fill-opacity:0.0; 
stroke:#840000; stroke-width:591; stroke-opacity:1; 
stroke-linecap:round; stroke-linejoin:round;">
<path d="M12643 12747
L12643 12551
" />
<path d="M10675 12747
L10675 12551
" />
</g>
<g style="fill:#840000; fill-opacity:1.0; 
stroke:#840000; stroke-width:0; stroke-opacity:1; 
stroke-linecap:round; stroke-linejoin:round;">
<circle cx="13647.5" cy="14795.3" r="393.5" /> 
</g>
<g style="fill:#840000; fill-opacity:1.0; 
stroke:#840000; stroke-width:39.3701; stroke-opacity:1; 
stroke-linecap:round; stroke-linejoin:round;">
</g>
<g style="fill:#840000; fill-opacity:1.0; 
stroke:#840000; stroke-width:0; stroke-opacity:1; 
stroke-linecap:round; stroke-linejoin:round;">
<circle cx="9647.45" cy="14795.3" r="393.5" /> 
</g>
<g style="fill:#840000; fill-opacity:1.0; 
stroke:#840000; stroke-width:39.3701; stroke-opacity:1; 
stroke-linecap:round; stroke-linejoin:round;">
</g>
<g style="fill:#840000; fill-opacity:1.0; 
stroke:#840000; stroke-width:0; stroke-opacity:1; 
stroke-linecap:round; stroke-linejoin:round;">
<circle cx="13789.2" cy="5440.94" r="393.5" /> 
</g>
<g style="fill:#840000; fill-opacity:1.0; 
stroke:#840000; stroke-width:39.3701; stroke-opacity:1; 
stroke-linecap:round; stroke-linejoin:round;">
</g>
<g style="fill:#840000; fill-opacity:1.0; 
stroke:#840000; stroke-width:0; stroke-opacity:1; 
stroke-linecap:round; stroke-linejoin:round;">
<circle cx="9789.18" cy="5440.94" r="393.5" /> 
</g>
<g style="fill:#840000; fill-opacity:1.0; 
stroke:#840000; stroke-width:39.3701; stroke-opacity:1; 
stroke-linecap:round; stroke-linejoin:round;">
</g>
<g style="fill:#840000; fill-opacity:1.0; 
stroke:#840000; stroke-width:0; stroke-opacity:1; 
stroke-linecap:round; stroke-linejoin:round;">
<circle cx="9667.14" cy="13594.5" r="393.5" /> 
</g>
<g style="fill:#840000; fill-opacity:1.0; 
stroke:#840000; stroke-width:39.3701; stroke-opacity:1; 
stroke-linecap:round; stroke-linejoin:round;">
</g>
<g style="fill:#840000; fill-opacity:1.0; 
stroke:#840000; stroke-width:0; stroke-opacity:1; 
stroke-linecap:round; stroke-linejoin:round;">
<circle cx="13667.1" cy="13594.5" r="393.5" /> 
</g>
<g style="fill:#840000; fill-opacity:1.0; 
stroke:#840000; stroke-width:39.3701; stroke-opacity:1; 
stroke-linecap:round; stroke-linejoin:round;">
</g> 
</svg>
